<svg xmlns="http://www.w3.org/2000/svg" id="Layer_1" width="32" height="32" x="0" y="0" version="1.0" viewBox="0 0 32 32" xml:space="preserve"><path style="line-height:normal;text-indent:0;text-align:start;text-decoration-line:none;text-decoration-style:solid;text-decoration-color:#000;text-transform:none;block-progression:tb;white-space:normal;isolation:auto;mix-blend-mode:normal;solid-color:#000;solid-opacity:1" id="path4153" fill="#000" fill-opacity="1" fill-rule="evenodd" stroke="none" stroke-dasharray="none" stroke-dashoffset="0" stroke-linecap="round" stroke-linejoin="round" stroke-miterlimit="4" stroke-opacity="1" stroke-width="1" d="M 12.638672 3.7851562 A 0.50004997 0.50004997 0 0 0 12.185547 4.1542969 C 11.697893 5.9738029 11.333755 7.6117662 11.064453 9.1269531 C 7.1270818 9.2303017 3.2454612 8.7834712 0.68554688 7.7597656 A 0.50004997 0.50004997 0 0 0 0.49023438 7.7246094 A 0.50004997 0.50004997 0 0 0 0 8.2246094 C 0 14.59787 0.72744666 18.822156 2.375 21.863281 C 4.0225533 24.904407 6.5886845 26.692402 10.050781 28.175781 A 0.50004997 0.50004997 0 0 0 10.445312 28.175781 C 12.51777 27.287812 14.128929 26.320677 15.529297 25.023438 C 15.911641 25.360139 16.307093 25.695817 16.728516 26.027344 A 0.50004997 0.50004997 0 0 0 17.109375 26.128906 C 20.837541 25.591926 23.779466 24.528614 26.158203 22.017578 C 28.53694 19.506542 30.332456 15.615064 31.982422 9.4589844 A 0.50004997 0.50004997 0 0 0 31.441406 8.8320312 C 28.949152 9.1291733 25.322134 8.670737 21.833984 7.7363281 C 18.345835 6.8019192 14.976495 5.385929 12.966797 3.8828125 A 0.50004997 0.50004997 0 0 0 12.638672 3.7851562 z M 13.027344 5.0488281 C 15.222333 6.5228153 18.290646 7.821042 21.576172 8.7011719 C 24.861789 9.5813262 28.166563 9.9918292 30.804688 9.8125 C 29.230795 15.461206 27.536894 19.107736 25.431641 21.330078 C 23.286693 23.594322 20.67929 24.551984 17.185547 25.082031 C 16.523198 24.552845 15.921328 24.026468 15.373047 23.492188 C 15.323573 23.443617 15.275427 23.394658 15.226562 23.345703 C 14.993527 23.113438 14.769917 22.879872 14.558594 22.642578 C 14.482015 22.556904 14.414917 22.472457 14.341797 22.386719 C 13.955689 21.932232 13.607737 21.465281 13.300781 20.978516 C 13.108953 20.664757 12.905335 20.307496 12.75 19.990234 A 0.50004997 0.50004997 0 0 0 12.714844 19.931641 C 12.698412 19.897758 12.678197 19.86613 12.662109 19.832031 C 12.509421 19.508397 12.371524 19.175186 12.25 18.830078 C 12.249132 18.827599 12.248913 18.824746 12.248047 18.822266 C 12.123402 18.465225 12.013936 18.095721 11.921875 17.710938 C 11.921731 17.710335 11.922019 17.709587 11.921875 17.708984 C 11.832837 17.336578 11.762774 16.947495 11.705078 16.544922 C 11.316072 13.706136 11.747516 10.018953 13.027344 5.0488281 z M 1.0449219 8.8613281 C 3.7264754 9.7824787 7.23469 10.179314 10.890625 10.099609 C 10.883647 10.150035 10.880018 10.195201 10.873047 10.246094 C 10.697176 11.427305 10.597454 12.51564 10.564453 13.533203 C 10.562436 13.595304 10.554224 13.663058 10.552734 13.724609 C 10.52749 14.769826 10.576999 15.735358 10.703125 16.636719 C 10.766188 17.087399 10.848691 17.522893 10.949219 17.943359 C 11.049747 18.363825 11.168795 18.768293 11.306641 19.160156 C 11.306844 19.160736 11.306437 19.16153 11.306641 19.162109 C 11.388776 19.396149 11.490789 19.616768 11.585938 19.841797 C 10.067126 20.150312 8.6654842 20.112511 7.0214844 19.455078 A 0.50004997 0.50004997 0 0 0 6.8261719 19.419922 A 0.50004997 0.50004997 0 0 0 6.3535156 20.048828 C 6.9039655 22.102607 8.0139647 23.260168 10.025391 24.265625 A 0.50004997 0.50004997 0 0 0 10.470703 24.265625 C 11.600821 23.700711 12.377959 23.064098 12.964844 22.28125 C 12.988508 22.313612 13.007254 22.34866 13.03125 22.380859 C 13.070256 22.433202 13.121374 22.48316 13.162109 22.535156 C 13.638649 23.15598 14.172152 23.749876 14.767578 24.326172 C 13.534389 25.455336 12.119524 26.336477 10.257812 27.152344 C 7.0144549 25.73517 4.7412011 24.132032 3.2539062 21.386719 C 1.7947381 18.693323 1.1018582 14.731952 1.0449219 8.8613281 z M 16.441406 9.2753906 C 16.214814 9.2698521 15.982154 9.2888699 15.740234 9.3300781 C 15.256396 9.4124941 14.734916 9.5834765 14.152344 9.8183594 A 0.50004997 0.50004997 0 0 0 13.947266 10.589844 C 14.724345 11.579567 15.414081 12.220816 16.28125 12.453125 C 17.148419 12.685434 18.066447 12.474575 19.234375 12.005859 A 0.50004997 0.50004997 0 0 0 19.441406 11.234375 C 18.66416 10.244438 17.973248 9.6016073 17.105469 9.3691406 C 16.888524 9.311024 16.667999 9.2809291 16.441406 9.2753906 z M 16.558594 10.320312 C 16.666358 10.310432 16.763909 10.314026 16.845703 10.335938 C 17.172426 10.423457 17.565468 10.902338 17.927734 11.242188 C 17.444655 11.355498 16.865153 11.575639 16.539062 11.488281 C 16.212425 11.400781 15.819463 10.920746 15.457031 10.580078 C 15.819529 10.494645 16.235301 10.349954 16.558594 10.320312 z M 24.445312 11.419922 C 24.219208 11.414382 23.986059 11.433396 23.744141 11.474609 C 23.260304 11.557039 22.738819 11.726055 22.15625 11.960938 A 0.50004997 0.50004997 0 0 0 21.951172 12.734375 C 22.72825 13.724097 23.417999 14.365361 24.285156 14.597656 C 25.152314 14.829951 26.070315 14.619046 27.238281 14.150391 A 0.50004997 0.50004997 0 0 0 27.445312 13.376953 C 26.668066 12.386964 25.975208 11.746125 25.107422 11.513672 C 24.890475 11.455558 24.671417 11.425462 24.445312 11.419922 z M 6.1015625 11.988281 C 5.2031749 11.988281 4.3710232 12.430294 3.3671875 13.185547 A 0.50004997 0.50004997 0 0 0 3.3671875 13.984375 C 4.3740192 14.739307 5.207721 15.181641 6.1054688 15.181641 C 7.0032163 15.181641 7.8349652 14.739307 8.8417969 13.984375 A 0.50004997 0.50004997 0 0 0 8.8417969 13.183594 C 7.8347476 12.428499 6.9999501 11.988281 6.1015625 11.988281 z M 24.5625 12.464844 C 24.67026 12.454783 24.767809 12.456604 24.849609 12.478516 C 25.176791 12.566156 25.570704 13.045969 25.933594 13.386719 C 25.449544 13.500468 24.869497 13.720284 24.542969 13.632812 C 24.216338 13.545312 23.823358 13.065268 23.460938 12.724609 C 23.823487 12.639147 24.23922 12.495025 24.5625 12.464844 z M 6.1015625 12.988281 C 6.4399962 12.988281 6.9445814 13.349185 7.3828125 13.583984 C 6.945574 13.818388 6.4430327 14.181641 6.1054688 14.181641 C 5.7677346 14.181641 5.2637077 13.818638 4.8261719 13.583984 C 5.2625873 13.349693 5.7633866 12.988281 6.1015625 12.988281 z M 15.732422 16.720703 A 0.50004997 0.50004997 0 0 0 15.259766 17.220703 C 15.259766 19.346964 16.03229 20.750494 17.714844 22.242188 A 0.50004997 0.50004997 0 0 0 18.146484 22.357422 C 20.349691 21.906677 21.721775 21.077598 22.785156 19.236328 A 0.50004997 0.50004997 0 0 0 22.292969 18.490234 C 19.777937 18.79005 18.088646 18.337239 16.060547 16.820312 A 0.50004997 0.50004997 0 0 0 15.732422 16.720703 z M 16.439453 18.117188 C 17.956063 19.037367 19.540897 19.460569 21.314453 19.421875 C 20.564265 20.380263 19.675701 20.954426 18.203125 21.287109 C 17.09439 20.263085 16.609998 19.321672 16.439453 18.117188 z M 7.7304688 20.621094 C 9.2012295 21.010225 10.609312 21.054015 12.013672 20.744141 C 12.124469 20.954312 12.228685 21.168221 12.351562 21.371094 C 11.882417 22.112291 11.266814 22.676841 10.253906 23.220703 C 8.9174144 22.519338 8.2080929 21.735468 7.7304688 20.621094 z " baseline-shift="baseline" clip-rule="nonzero" color="#000" color-interpolation="sRGB" color-interpolation-filters="linearRGB" color-rendering="auto" direction="ltr" display="inline" enable-background="accumulate" font-family="sans-serif" font-size="medium" font-stretch="normal" font-style="normal" font-variant="normal" font-weight="400" image-rendering="auto" letter-spacing="normal" opacity="1" overflow="visible" shape-rendering="auto" text-anchor="start" text-decoration="none" text-rendering="auto" visibility="visible" word-spacing="normal" writing-mode="lr-tb"/></svg>