<svg xmlns="http://www.w3.org/2000/svg" xmlns:xlink="http://www.w3.org/1999/xlink" data-name="Layer 1" viewBox="0 0 64 64"><defs><linearGradient id="a" x1="26.08" x2="61.34" y1="21.79" y2="21.79" gradientUnits="userSpaceOnUse"><stop offset="0" stop-color="#fd7001"/><stop offset="1" stop-color="#ffd807"/></linearGradient><linearGradient id="b" x1="2.66" x2="57.53" y1="34.97" y2="34.97" xlink:href="#a"/></defs><path fill="url(#a)" d="M56.8,22l3.5-.86a.61.61,0,0,1,.75.45.62.62,0,0,1-.45.75l-3.5.86a.62.62,0,1,1-.3-1.2Zm-2-3.47c.11.2,3.13-2.16,3.29-2.22a.62.62,0,0,0-.73-1l-2.93,2.1A.62.62,0,0,0,54.79,18.51Zm-4.35-3.8a.63.63,0,0,0,.85-.21l1.86-3.09a.62.62,0,1,0-1.06-.64l-1.86,3.09A.62.62,0,0,0,50.44,14.71ZM45.67,13a.62.62,0,0,0,.7-.52l.55-3.56a.63.63,0,0,0-.52-.71.62.62,0,0,0-.71.52l-.54,3.57A.62.62,0,0,0,45.67,13Zm-5.83-.22a.62.62,0,0,0,1.2-.3L40.17,9a.62.62,0,0,0-1.2.3Zm-4.71,2.47a.62.62,0,0,0,1-.73L34,11.59a.62.62,0,0,0-1,.74Zm-6.51,2.24,3.09,1.86a.62.62,0,0,0,.64-1.06l-3.09-1.86A.62.62,0,0,0,28.62,17.47ZM58.79,34.24,55.7,32.37a.62.62,0,0,0-.64,1.06,34.73,34.73,0,0,0,3.41,2A.62.62,0,0,0,58.79,34.24Zm2-6.21-3.56-.58a.62.62,0,0,0-.2,1.22l3.56.58h.1A.62.62,0,0,0,60.83,28ZM26.59,23.68l3.56.58a.62.62,0,0,0,.2-1.22l-3.56-.58A.62.62,0,0,0,26.59,23.68Z"/><path fill="url(#b)" d="M52.52,33c6.27-7.2.85-19-8.8-18.88A11.51,11.51,0,0,0,32.23,25.6a13.47,13.47,0,0,0-15.7,8.33,6,6,0,0,0-7,5C-.49,41,.8,55.6,11.12,55.82H44.87C57,55.86,62.13,40.13,52.52,33ZM43.73,15.35c8.66-.12,13.48,10.55,7.77,16.95a12.77,12.77,0,0,0-11.19-1A13.24,13.24,0,0,0,33.48,26,10.27,10.27,0,0,1,43.73,15.35Zm1.14,39.23H11.12c-9-.22-9.87-13.14-.93-14.51a7.46,7.46,0,0,1,8.15,6.48.62.62,0,0,0,1.23-.13,8.69,8.69,0,0,0-8.75-7.62,4.72,4.72,0,0,1,5.93-3.54.64.64,0,0,0,.77-.4c2.91-9.46,16.2-11.4,21.65-3.07a12.68,12.68,0,0,0-7,11.33.62.62,0,0,0,1.24,0A11.5,11.5,0,0,1,44.87,31.66C60,32.28,60.12,53.92,44.87,54.58Z"/></svg>